<mxfile host="app.diagrams.net" modified="2021-03-15T06:10:03.292Z" agent="5.0 (Macintosh; Intel Mac OS X 11_1_0) AppleWebKit/537.36 (KHTML, like Gecko) Chrome/89.0.4389.82 Safari/537.36" etag="tbhvSFy6HSGkdBHSq9Dp" version="14.4.7" type="github">
  <diagram id="nrj5IciywMu5bR4sUI4J" name="Page-1">
    <mxGraphModel dx="675" dy="514" grid="1" gridSize="10" guides="1" tooltips="1" connect="1" arrows="1" fold="1" page="1" pageScale="1" pageWidth="827" pageHeight="1169" math="0" shadow="0">
      <root>
        <mxCell id="0" />
        <mxCell id="1" parent="0" />
        <mxCell id="J8jii2UEHaQEP8SJcQL9-1" value="" style="endArrow=none;html=1;" edge="1" parent="1" target="J8jii2UEHaQEP8SJcQL9-3">
          <mxGeometry width="50" height="50" relative="1" as="geometry">
            <mxPoint x="160" y="240" as="sourcePoint" />
            <mxPoint x="480" y="240" as="targetPoint" />
          </mxGeometry>
        </mxCell>
        <mxCell id="J8jii2UEHaQEP8SJcQL9-2" value="" style="endArrow=none;html=1;" edge="1" parent="1">
          <mxGeometry width="50" height="50" relative="1" as="geometry">
            <mxPoint x="320" y="400" as="sourcePoint" />
            <mxPoint x="320" y="80" as="targetPoint" />
          </mxGeometry>
        </mxCell>
        <mxCell id="J8jii2UEHaQEP8SJcQL9-3" value="Guaranteed&lt;br&gt;Execution" style="text;html=1;strokeColor=none;fillColor=none;align=center;verticalAlign=middle;whiteSpace=wrap;rounded=0;" vertex="1" parent="1">
          <mxGeometry x="480" y="230" width="80" height="20" as="geometry" />
        </mxCell>
        <mxCell id="J8jii2UEHaQEP8SJcQL9-4" value="Best-Effort" style="text;html=1;strokeColor=none;fillColor=none;align=center;verticalAlign=middle;whiteSpace=wrap;rounded=0;" vertex="1" parent="1">
          <mxGeometry x="90" y="230" width="60" height="20" as="geometry" />
        </mxCell>
        <mxCell id="J8jii2UEHaQEP8SJcQL9-5" value="Exact Timing" style="text;html=1;strokeColor=none;fillColor=none;align=center;verticalAlign=middle;whiteSpace=wrap;rounded=0;" vertex="1" parent="1">
          <mxGeometry x="280" y="60" width="90" height="20" as="geometry" />
        </mxCell>
        <mxCell id="J8jii2UEHaQEP8SJcQL9-6" value="Deferrable" style="text;html=1;strokeColor=none;fillColor=none;align=center;verticalAlign=middle;whiteSpace=wrap;rounded=0;" vertex="1" parent="1">
          <mxGeometry x="300" y="400" width="40" height="20" as="geometry" />
        </mxCell>
        <mxCell id="J8jii2UEHaQEP8SJcQL9-7" value="&lt;font color=&quot;#3399ff&quot;&gt;ThreadPool&lt;/font&gt;" style="text;html=1;fillColor=none;align=center;verticalAlign=middle;whiteSpace=wrap;rounded=0;strokeColor=#FFFFFF;" vertex="1" parent="1">
          <mxGeometry x="240" y="180" width="40" height="20" as="geometry" />
        </mxCell>
        <mxCell id="J8jii2UEHaQEP8SJcQL9-9" value="&lt;meta charset=&quot;utf-8&quot;&gt;&lt;span style=&quot;color: rgb(51, 153, 255); font-family: helvetica; font-size: 12px; font-style: normal; font-weight: 400; letter-spacing: normal; text-align: center; text-indent: 0px; text-transform: none; word-spacing: 0px; background-color: rgb(248, 249, 250); display: inline; float: none;&quot;&gt;ThreadPool&lt;/span&gt;" style="text;whiteSpace=wrap;html=1;" vertex="1" parent="1">
          <mxGeometry x="215" y="260" width="90" height="30" as="geometry" />
        </mxCell>
        <mxCell id="J8jii2UEHaQEP8SJcQL9-10" value="&lt;div style=&quot;text-align: center&quot;&gt;&lt;span&gt;&lt;font color=&quot;#3399ff&quot; face=&quot;helvetica&quot;&gt;Foreground&lt;/font&gt;&lt;/span&gt;&lt;/div&gt;&lt;div style=&quot;text-align: center&quot;&gt;&lt;span&gt;&lt;font color=&quot;#3399ff&quot; face=&quot;helvetica&quot;&gt;Service&lt;/font&gt;&lt;/span&gt;&lt;/div&gt;" style="text;whiteSpace=wrap;html=1;" vertex="1" parent="1">
          <mxGeometry x="350" y="175" width="90" height="30" as="geometry" />
        </mxCell>
        <mxCell id="J8jii2UEHaQEP8SJcQL9-11" value="&lt;span style=&quot;color: rgb(51 , 153 , 255) ; font-family: &amp;#34;helvetica&amp;#34; ; font-size: 12px ; font-style: normal ; font-weight: 400 ; letter-spacing: normal ; text-align: center ; text-indent: 0px ; text-transform: none ; word-spacing: 0px ; background-color: rgb(248 , 249 , 250) ; display: inline ; float: none&quot;&gt;JobScheduler&lt;br&gt;JobDispatcher&lt;br&gt;AlermManager&lt;br&gt;BroadcastReceivers&lt;br&gt;&lt;/span&gt;" style="text;whiteSpace=wrap;html=1;" vertex="1" parent="1">
          <mxGeometry x="350" y="260" width="90" height="30" as="geometry" />
        </mxCell>
      </root>
    </mxGraphModel>
  </diagram>
</mxfile>
